# xmcd
#
# Track frame offsets:
#	150
#	13775
#	26434
#	39621
#	53970
#	72055
#	88561
#	104190
#	116397
#	132255
#	147941
#
# Disc length: 2130 seconds
#
# Revision: 1
# Processed by: cddbd v1.5.2PL0 Copyright (c) Steve Scherf et al.
# Submitted via: audiograbber 1.83.01
#
DISCID=9608500b
DTITLE=Tanya Tucker - Icon
DYEAR=2014
DGENRE=Country
TTITLE0=Lizzie and the Rain Man
TTITLE1=San Antonio Stroll
TTITLE2=Here's Some Love
TTITLE3=Just Another Love
TTITLE4=I'll Come Back as Another Woman
TTITLE5=I Won't Take Less Than Your Love
TTITLE6=If It Don't Come Easy
TTITLE7=Strong Enough to Bend
TTITLE8=My Arms Stay Open All Night
TTITLE9=Down to My Last Teardrop
TTITLE10=It's a Little Too Late
EXTD=
EXTT0=
EXTT1=
EXTT2=
EXTT3=
EXTT4=
EXTT5=
EXTT6=
EXTT7=
EXTT8=
EXTT9=
EXTT10=
PLAYORDER=
